<svg width="2911" height="368" viewBox="0 0 2911 368" fill="none" xmlns="http://www.w3.org/2000/svg">
<path d="M234.079 40.0336C240.74 9.82331 258.059 -32.4711 274.046 40.0336V88.8347C280.707 96.5809 294.029 102.778 294.029 65.596C298.692 57.8498 309.217 47.005 314.013 65.596C320.008 88.8347 314.013 144.608 274.046 126.017V212H234.079V169.008C187.717 149.488 178.791 91.9333 180.123 65.596C188.117 26.555 202.105 49.3289 208.1 65.596C206.501 104.637 224.753 122.144 234.079 126.017V40.0336Z" fill="#8EA9B5"/>
<path d="M2550.33 184.613C2555.91 159.248 2570.43 123.737 2583.83 184.613V225.588C2589.42 232.092 2600.58 237.295 2600.58 206.076C2604.49 199.572 2613.31 190.466 2617.33 206.076C2622.36 225.588 2617.33 272.416 2583.83 256.807V329H2550.33V292.903C2511.47 276.514 2503.99 228.189 2505.1 206.076C2511.8 173.296 2523.53 192.418 2528.55 206.076C2527.21 238.856 2542.51 253.555 2550.33 256.807V184.613Z" fill="#8EA9B5"/>
<path d="M2657.67 168.613C2652.09 143.248 2637.57 107.737 2624.17 168.613V209.588C2618.58 216.092 2607.42 221.295 2607.42 190.076C2603.51 183.572 2594.69 174.466 2590.67 190.076C2585.64 209.588 2590.67 256.416 2624.17 240.807V313H2657.67V276.903C2696.53 260.514 2704.01 212.189 2702.9 190.076C2696.2 157.296 2684.47 176.418 2679.45 190.076C2680.79 222.856 2665.49 237.555 2657.67 240.807V168.613Z" fill="#8EA9B5"/>
<path d="M1248.55 117.515C1245.42 95.9968 1237.27 65.872 1229.74 117.515V152.274C1226.61 157.791 1220.34 162.205 1220.34 135.722C1218.14 130.204 1213.19 122.48 1210.94 135.722C1208.11 152.274 1210.93 191.999 1229.74 178.757V240H1248.55V209.379C1270.37 195.475 1274.57 154.481 1273.94 135.722C1270.18 107.914 1263.6 124.135 1260.78 135.722C1261.53 163.529 1252.94 175.999 1248.55 178.757V117.515Z" fill="#8EA9B5"/>
<path d="M1312.55 134.515C1309.42 112.997 1301.27 82.872 1293.74 134.515V169.274C1290.61 174.791 1284.34 179.205 1284.34 152.722C1282.14 147.204 1277.19 139.48 1274.94 152.722C1272.11 169.274 1274.93 208.999 1293.74 195.757V257H1312.55V226.379C1334.37 212.475 1338.57 171.481 1337.94 152.722C1334.18 124.914 1327.6 141.135 1324.78 152.722C1325.53 180.529 1316.94 192.999 1312.55 195.757V134.515Z" fill="#8EA9B5"/>
<path d="M0 368H2911C2641.39 275.903 2251 294.85 2089.52 315.836C1880.56 344.616 1600.84 303.844 1487.1 279.861C846.76 141.715 228.892 177.93 0 213.306V368Z" fill="#273153"/>
</svg>
