<svg width="1034" height="1036" viewBox="0 0 1034 1036" fill="none" xmlns="http://www.w3.org/2000/svg">
<path d="M705.271 204C865.271 159.2 947.938 238.667 969.271 284C1132.73 666.203 947.538 881.981 741.271 981.522C705.333 998.864 668.756 1012.68 633.271 1023.23C548 1023.23 382 956 576.771 1034C542.548 1037.15 392 1044 294 944L332.342 989.003C348.389 1002.76 359.974 1012.95 348 1007.38C195.519 936.433 79.608 783.217 41.271 696C-45.129 478.4 23.9377 312 69.271 256C120.471 160 261.271 45.3333 325.271 0V132L441.271 44V237.346C469.168 259.506 483.06 294.093 496.271 302.5C563.471 328.1 583.438 354 576.771 374C525.571 447.6 449.271 441.333 421.271 428C312.471 488.8 375.938 568 421.271 600C546.071 641.6 614.604 732 633.271 772C636.471 647.2 706.604 552 741.271 520C821.271 337.6 750.604 233.333 705.271 204Z" fill="#E9663D"/>
<path d="M277.271 380C453.271 316 553.938 353.333 575.271 380C533.671 447.2 449.271 440 419.271 428C212.871 466.4 187.938 758.667 201.271 900C140.471 868 79.9376 769.333 57.2709 724C54.0709 589.6 151.938 516 201.271 496H113.271C154.871 448 213.271 441.333 237.271 444L132.695 390.026C125.555 387.296 119.001 383.967 113.271 380L132.695 390.026C177.398 407.114 245.08 400.694 277.271 380Z" fill="white"/>
<path d="M355.671 258.135C395.351 249.094 405.271 270.944 405.271 283C405.271 270.342 372.204 277.726 355.671 283L343.271 270.568L355.671 258.135Z" fill="#1F0D0D"/>
<path d="M553.271 332C593.271 349.6 585.938 370 577.271 378L565.271 396L515.271 352L553.271 332Z" fill="black"/>
<path d="M701 569.061C820.143 398.757 750.643 247.453 701 202.163C1032.67 118.189 1058.07 464.722 1020 657C1030.07 587 990.096 513.257 948 483.5C920.227 503.12 904.77 563.952 904.77 589.785C854.054 530.924 854.121 462.254 860.494 435.276C842.784 489.428 741.083 550.421 701 569.061Z" fill="#D63737"/>
<path d="M962 318.095C906.14 192.242 784.725 192.408 731 208.223C809.96 270.95 799.25 362.211 784.025 400C826.445 377.226 843.35 335.908 846.5 318.095C864.98 350.458 891.65 358.881 902.675 359.048C893.925 339.237 881.675 298.918 902.675 296.121C923.675 293.324 950.975 309.605 962 318.095Z" fill="white"/>
<path d="M325 0V48.8571L131 171C197.283 89.5714 287.951 23.0714 325 0Z" fill="#D63737"/>
<path d="M441 43V70.7143L323 135C363.317 92.1429 418.465 55.1429 441 43Z" fill="#D63737"/>
</svg>
