<svg width="1544" height="2048" viewBox="0 0 1544 2048" fill="none" xmlns="http://www.w3.org/2000/svg">
<path d="M875.364 264.397C779 282.108 795 264.397 715.364 264.397C616.164 78.0751 458.03 24.5419 391.364 21.0655C343.364 237.978 411.364 366.365 451.364 403.444C438.564 442.377 355.364 435.888 315.364 427.777C312.164 647.47 463.364 744.108 539.364 764.965C420.964 862.297 458.03 1014.09 491.364 1077.82C478.564 1127.88 419.364 1240.04 391.364 1289.87C285.764 1618.02 494.03 1769.58 611.364 1804.34C348.964 1804.34 267.364 1700.05 259.364 1647.91C243.364 2034.46 759.364 2063.89 1019.36 2030.29C1368.16 1977.45 1514.03 1753.35 1543.36 1647.91C1543.36 1380.94 1290.03 1337.37 1163.36 1348.96C1179.36 1240.5 1100.33 1129.96 1063 1077.82C1130.2 944.335 1064.7 806.679 1019.36 764.965C1179.36 764.965 1235.36 523.951 1243.36 403.444C1185.76 453.5 1128.7 424.301 1107.36 403.444C1222.56 286.644 1192.7 99.8586 1163.36 21.0655C1144.16 -56.8006 963.364 150.842 875.364 264.397Z" fill="#E9663D"/>
<path d="M391 23.1333C567 34.257 681.667 189.989 717 266.465L453 405.512C345.8 316.522 367 113.514 391 23.1333Z" fill="#D63737"/>
<path d="M1165 2.27672C1237 226.142 1156.33 365.536 1107 407.25L875 264.727C1052.6 24.1766 1142.33 -10.4692 1165 2.27672Z" fill="#D63737"/>
<path d="M1119.36 59.3027C997.763 151.074 943.667 253.719 933 297.75L1059.36 382.586C1158.56 279.692 1140.7 124.191 1119.36 59.3027Z" fill="white"/>
<path d="M441.031 59.3027C562.631 151.074 638.333 258.933 649 302.964L501.031 382.586C401.831 279.692 419.698 124.191 441.031 59.3027Z" fill="white"/>
<path d="M520.2 763.095C375.078 742.796 326.972 556.054 313.86 465.221C387.976 661.738 513.04 647.06 566.308 615.157L727.818 723.996C764.56 784.375 817.247 748.686 838.998 723.295L1011.03 612.355C1169.61 665.905 1219.26 557.037 1231 483.725C1196.81 729.413 1088.78 765.265 1035.23 763.077L520.2 763.095Z" fill="white"/>
<path d="M871.363 625.918C876.697 584.204 920.963 513.29 1055.36 563.347C1007.36 562.188 903.363 573.08 871.363 625.918Z" fill="#3E2A2A"/>
<path d="M699.363 625.754C694.03 584.04 649.763 513.126 515.363 563.183C563.363 562.024 667.363 572.916 699.363 625.754Z" fill="#3E2A2A"/>
<path d="M765 2048C311.744 2030.73 215.663 1758.11 245.991 1627.38C335.318 1849.02 647.138 1803.68 791.882 1753.31C800.032 1791.13 739.963 1828.29 692.263 1849.68C755.91 1829.3 808.66 1847.65 829.102 1861.25C753.008 1858.37 725.714 1910.42 721.578 1936.81C781.13 1951.2 878.822 1942.8 899.5 1936.81C849.873 1991.5 853.916 2004.25 829.102 1995.86C891.963 2053.42 932.051 2041.17 961 2037.57L899.5 2048H765Z" fill="white"/>
<path d="M496.5 1102.48C394.1 927.284 484.333 796.581 539 761.819H1023C1154.2 900.865 1091 1046.86 1043 1102.48C1043 1055.21 1011 1043.39 995 1043.39C1004.6 1090.66 969.667 1141.88 951 1161.58C960.6 1103.18 933.667 1086.26 919 1085.1C925.4 1218.59 825.667 1309.89 775 1338.86C768.6 1305.49 737.667 1292.51 723 1290.2C639.8 1229.02 605.667 1127.97 599 1085.1C573.4 1118.47 588.333 1149.99 599 1161.58C528.6 1097.62 529.667 1056.13 539 1043.39C507 1062.85 495.167 1096.69 496.5 1102.48Z" fill="white"/>
<path d="M688 801.794C720.25 844.421 799.8 904.099 860 801.794" stroke="#3E2A2A" stroke-width="10"/>
<path d="M1295 758.289C844.964 733.204 472.818 747.837 343 758.289V792.057C593.02 819.071 1081.84 798.489 1295 784.821V758.289Z" fill="#E3A446"/>
<path d="M343 792.235V759.212H207V792.235H343Z" fill="#8F8383"/>
<path d="M66 759.212C137.2 734.183 189.667 748.783 207 759.212V791.366C183 817.09 103 806.14 66 797.45C55.5022 789.63 21.9281 783.235 3.48614 780.556C2.1202 780.541 0.946158 780.385 0 780.069C1.08672 780.214 2.25259 780.377 3.48614 780.556C17.1344 780.708 49.9406 766.848 66 759.212Z" fill="#805035"/>
<path d="M775 739.224C735.464 816.346 673.908 771.358 653 739.224H775H787.5H902C859.423 813.592 802.878 770.21 775 739.224Z" fill="white"/>
<path d="M779 744.438C755.389 771.089 697.333 808.399 654 744.438" stroke="#3E2A2A" stroke-width="10"/>
<path d="M779 744.438C802.233 771.089 859.36 808.399 902 744.438" stroke="#3E2A2A" stroke-width="10"/>
<path d="M723.363 726.727C743.363 701.235 792.963 665.546 831.363 726.727C816.697 748.743 774.563 779.565 723.363 726.727Z" fill="#3E2A2A"/>
</svg>
