<svg width="398" height="362" viewBox="0 0 398 362" fill="none" xmlns="http://www.w3.org/2000/svg">
<g filter="url(#filter0_d)">
<path d="M320.861 188.469C323.417 171.864 321.888 154.885 316.407 139.003C310.925 123.121 301.656 108.814 289.402 97.3198C277.148 85.8256 262.278 77.4904 246.078 73.0355C229.878 68.5807 212.836 68.1404 196.428 71.7528L205.555 113.209C215.227 111.08 225.273 111.339 234.822 113.965C244.372 116.591 253.138 121.505 260.361 128.281C267.585 135.056 273.049 143.49 276.28 152.852C279.511 162.214 280.412 172.223 278.906 182.012L320.861 188.469Z" fill="#726F70"/>
</g>
<g filter="url(#filter1_d)">
<path d="M183.961 74.8847C166.394 79.953 150.581 89.7753 138.257 103.273C125.932 116.771 117.575 133.422 114.101 151.397C110.628 169.372 112.173 187.976 118.567 205.166C124.962 222.356 131.998 234.628 146.388 246L175.599 216.754C167.116 210.05 160.635 201.142 156.865 191.009C153.096 180.876 152.185 169.909 154.233 159.313C156.28 148.717 161.207 138.902 168.472 130.945C175.737 122.988 185.059 117.198 195.414 114.211L183.961 74.8847Z" fill="#606279"/>
</g>
<g filter="url(#filter2_d)">
<path d="M157.101 257.109C170.556 267.171 186.261 273.802 202.856 276.428C219.45 279.055 236.435 277.599 252.34 272.185C268.245 266.772 282.592 257.564 294.138 245.359C305.685 233.154 314.552 212.828 319.076 196.647L277.726 190.709C275.059 200.247 270.108 208.992 263.302 216.186C256.496 223.381 248.038 228.809 238.663 232C229.287 235.191 219.275 236.05 209.492 234.501C199.71 232.953 190.452 229.044 182.521 223.113L157.101 257.109Z" fill="#343434"/>
</g>
<g filter="url(#filter3_d)">
<path d="M262.807 11.7592L270.45 13.1572L260.126 69.601L252.483 68.203L262.807 11.7592Z" fill="#131313"/>
<path d="M269.073 0.752769L270.396 13.4511L262.753 12.0531L269.073 0.752769Z" fill="#C4C4C4"/>
<path d="M269.073 0.752791L269.712 6.33821L266.341 5.72179L269.073 0.752791Z" fill="#0F0F0F"/>
</g>
<g filter="url(#filter4_d)">
<path d="M296.967 22.6779L303.937 26.1116L278.58 77.585L271.61 74.1512L296.967 22.6779Z" fill="#423E3C"/>
<path d="M306.003 13.8032L303.805 26.3797L296.835 22.9459L306.003 13.8032Z" fill="#C4C4C4"/>
<path d="M306.003 13.8032L305.091 19.3504L302.017 17.8364L306.003 13.8032Z" fill="#494848"/>
</g>
<g filter="url(#filter5_d)">
<path d="M324.992 43.1045L330.657 48.4225L291.385 90.2581L285.72 84.9401L324.992 43.1045Z" fill="#63625E"/>
<path d="M336.224 37.2524L330.453 48.6405L324.787 43.3224L336.224 37.2524Z" fill="#C4C4C4"/>
<path d="M336.224 37.2523L333.733 42.292L331.235 39.9471L336.224 37.2523Z" fill="#605E5B"/>
</g>
<g filter="url(#filter6_d)">
<path d="M351.373 65.995L355.714 72.4402L308.119 104.49L303.778 98.045L351.373 65.995Z" fill="#949693"/>
<path d="M363.626 62.7883L355.466 72.6071L351.126 66.1619L363.626 62.7883Z" fill="#C4C4C4"/>
<path d="M363.626 62.7882L360.076 67.1474L358.162 64.3056L363.626 62.7882Z" fill="#949693"/>
</g>
<g filter="url(#filter7_d)">
<path d="M368.089 96.9888L371.301 104.064L319.052 127.783L315.84 120.707L368.089 96.9888Z" fill="#B3B4B5"/>
<path d="M380.704 95.8573L371.029 104.188L367.817 97.1124L380.704 95.8573Z" fill="#C4C4C4"/>
<path d="M380.704 95.8573L376.48 99.5678L375.064 96.4481L380.704 95.8573Z" fill="#A9ABAE"/>
</g>
<g filter="url(#filter8_d)">
<path d="M379.922 127.184L381.781 134.729L326.067 148.458L324.208 140.913L379.922 127.184Z" fill="white"/>
<path d="M392.53 128.386L381.491 134.8L379.632 127.256L392.53 128.386Z" fill="#C4C4C4"/>
<path d="M392.53 128.386L387.697 131.259L386.878 127.932L392.53 128.386Z" fill="white"/>
</g>
<g filter="url(#filter9_d)">
<rect x="211.143" y="303.798" width="7.85053" height="28.4582" fill="#736D6D"/>
<rect x="195.442" y="345.013" width="38.2713" height="8.83185" rx="4.41592" fill="#383838"/>
<rect x="195.442" y="288.097" width="38.2713" height="8.83185" rx="4.41592" fill="#383838"/>
<rect x="191.516" y="332.256" width="46.1219" height="12.7571" rx="6.37856" fill="#454545"/>
<rect x="191.516" y="296.928" width="46.1219" height="12.7571" rx="6.37856" fill="#454545"/>
</g>
<g filter="url(#filter10_d)">
<rect x="272.511" y="295.901" width="7.85053" height="28.4582" transform="rotate(-18.6363 272.511 295.901)" fill="#736D6D"/>
<rect x="270.804" y="339.973" width="38.2713" height="8.83185" rx="4.41592" transform="rotate(-18.6363 270.804 339.973)" fill="#383838"/>
<rect x="252.616" y="286.041" width="38.2713" height="8.83185" rx="4.41592" transform="rotate(-18.6363 252.616 286.041)" fill="#383838"/>
<rect x="263.008" y="329.139" width="46.1219" height="12.7571" rx="6.37856" transform="rotate(-18.6363 263.008 329.139)" fill="#454545"/>
<rect x="251.719" y="295.664" width="46.1219" height="12.7571" rx="6.37856" transform="rotate(-18.6363 251.719 295.664)" fill="#454545"/>
</g>
<g filter="url(#filter11_d)">
<rect x="319.14" y="261.453" width="7.85053" height="28.4582" transform="rotate(-52.0931 319.14 261.453)" fill="#736D6D"/>
<rect x="342.013" y="299.163" width="38.2713" height="8.83185" rx="4.41592" transform="rotate(-52.0931 342.013 299.163)" fill="#383838"/>
<rect x="297.106" y="264.195" width="38.2713" height="8.83185" rx="4.41592" transform="rotate(-52.0931 297.106 264.195)" fill="#383838"/>
<rect x="329.536" y="294.422" width="46.1219" height="12.7571" rx="6.37856" transform="rotate(-52.0931 329.536 294.422)" fill="#454545"/>
<rect x="301.662" y="272.718" width="46.1219" height="12.7571" rx="6.37856" transform="rotate(-52.0931 301.662 272.718)" fill="#454545"/>
</g>
<rect x="155.227" y="80.3076" width="42.5697" height="88.9235" rx="15" transform="rotate(139.826 155.227 80.3076)" fill="#7E859F"/>
<path d="M102.273 49.8657L104.625 56.5514L102.54 58.3119L99.6766 48.4272L101.333 47.0289L110.589 51.5162L108.504 53.2767L102.273 49.8657ZM102.487 63.2803L101.103 61.6414L118.821 55.1041L120.205 56.743L102.487 63.2803ZM118.892 69.4629L116.363 62.5152L118.413 60.7837L121.481 70.8928L119.825 72.2911L110.373 67.5722L112.424 65.8407L118.892 69.4629Z" fill="black"/>
<rect x="112.004" y="124.389" width="38.9685" height="81.4009" rx="15" transform="rotate(105.811 112.004 124.389)" fill="#606EA0"/>
<path d="M53.4988 143.232C51.056 141.736 50.183 139.658 50.8796 136.997L51.5597 134.596C52.0386 132.904 51.5527 131.853 50.1019 131.442L50.6702 129.435C52.121 129.846 53.0869 129.202 53.568 127.503L54.2449 125.113C54.6505 123.766 55.3098 122.772 56.2226 122.129C57.1429 121.488 58.3178 121.167 59.7472 121.166L59.8414 122.898C58.4218 122.951 57.4233 123.91 56.8461 125.777L56.1564 128.212C55.6775 129.903 54.691 130.907 53.1968 131.223C54.3014 132.283 54.6121 133.666 54.129 135.372L53.4489 137.774C52.9618 139.666 53.3089 141.006 54.4902 141.795L53.4988 143.232ZM59.4683 137.42C59.9795 137.565 60.3326 137.823 60.5277 138.195C60.725 138.559 60.7619 138.959 60.6384 139.395C60.5171 139.824 60.2769 140.141 59.9179 140.348C59.561 140.548 59.127 140.575 58.6158 140.43C58.1272 140.292 57.7795 140.043 57.5726 139.684C57.3657 139.325 57.324 138.928 57.4475 138.492C57.5709 138.056 57.8121 137.734 58.1712 137.527C58.5323 137.313 58.9647 137.277 59.4683 137.42ZM65.9179 139.246C66.429 139.391 66.7821 139.649 66.9773 140.021C67.1745 140.385 67.2114 140.786 67.0879 141.222C66.9666 141.65 66.7264 141.968 66.3674 142.175C66.0105 142.374 65.5765 142.401 65.0654 142.257C64.5768 142.118 64.229 141.87 64.0221 141.511C63.8152 141.152 63.7735 140.754 63.897 140.318C64.0204 139.882 64.2617 139.561 64.6207 139.354C64.9818 139.139 65.4142 139.103 65.9179 139.246ZM72.3674 141.072C72.8785 141.217 73.2317 141.475 73.4268 141.847C73.624 142.212 73.6609 142.612 73.5375 143.048C73.4161 143.476 73.176 143.794 72.817 144.001C72.4601 144.2 72.0261 144.228 71.5149 144.083C71.0263 143.945 70.6786 143.696 70.4717 143.337C70.2648 142.978 70.2231 142.58 70.3465 142.144C70.47 141.708 70.7112 141.387 71.0702 141.18C71.4314 140.966 71.8638 140.93 72.3674 141.072ZM74.4927 147.46C75.9371 147.406 76.9456 146.425 77.5185 144.516L78.1826 142.171C78.6743 140.435 79.6957 139.437 81.2469 139.178C80.0618 138.144 79.7184 136.748 80.2164 134.989L80.8774 132.655C81.3901 130.729 81.0456 129.365 79.844 128.562L80.8322 127.137C82.0917 127.907 82.9336 128.82 83.3578 129.874C83.7842 130.92 83.8004 132.138 83.4067 133.529L82.7681 135.784C82.2892 137.476 82.7788 138.528 84.2371 138.941L83.6688 140.948C82.2105 140.535 81.2419 141.174 80.763 142.865L80.134 145.086C79.7359 146.492 79.0773 147.528 78.1581 148.193C77.2443 148.868 76.0529 149.204 74.5838 149.203L74.4927 147.46Z" fill="black"/>
<rect x="102.368" y="178" width="39.0411" height="81.5525" rx="15" transform="rotate(74.0208 102.368 178)" fill="#3E54A4"/>
<path d="M53.6703 216.032C54.1811 215.885 54.6173 215.919 54.9791 216.132C55.3387 216.338 55.5809 216.659 55.7056 217.094C55.8282 217.522 55.7914 217.919 55.5953 218.284C55.3969 218.641 55.0424 218.893 54.5317 219.04C54.0435 219.179 53.6169 219.151 53.2519 218.955C52.887 218.759 52.6421 218.443 52.5174 218.007C52.3926 217.572 52.4283 217.171 52.6245 216.806C52.8185 216.434 53.1671 216.176 53.6703 216.032ZM50.9314 206.467C51.4422 206.32 51.8784 206.354 52.2402 206.567C52.5998 206.773 52.842 207.094 52.9667 207.53C53.0893 207.958 53.0525 208.354 52.8563 208.719C52.658 209.077 52.3035 209.328 51.7928 209.475C51.3046 209.615 50.878 209.586 50.513 209.39C50.148 209.194 49.9032 208.878 49.7784 208.442C49.6537 208.007 49.6894 207.607 49.8856 207.242C50.0796 206.869 50.4282 206.611 50.9314 206.467ZM65.5942 220.126C62.73 220.142 60.8931 218.835 60.0835 216.206L59.3963 213.807C58.9124 212.117 57.9457 211.479 56.4961 211.895L55.9219 209.889C57.3714 209.474 57.8532 208.418 57.3671 206.72L56.6832 204.332C56.3186 202.974 56.3549 201.781 56.7922 200.754C57.2369 199.724 58.0665 198.833 59.2808 198.078L60.2732 199.501C59.0943 200.294 58.7512 201.635 59.2438 203.526L59.9406 205.959C60.4245 207.649 60.1146 209.022 59.011 210.077C60.5082 210.396 61.5009 211.408 61.9891 213.113L62.6763 215.513C63.259 217.377 64.2603 218.334 65.68 218.383L65.5942 220.126ZM67.6063 212.041C68.1171 211.895 68.5533 211.928 68.9151 212.142C69.2747 212.347 69.5169 212.668 69.6416 213.104C69.7642 213.532 69.7274 213.928 69.5312 214.293C69.3329 214.651 68.9784 214.903 68.4677 215.049C67.9795 215.189 67.5529 215.161 67.1879 214.964C66.8229 214.768 66.5781 214.452 66.4533 214.017C66.3286 213.581 66.3643 213.181 66.5605 212.816C66.7545 212.443 67.1031 212.185 67.6063 212.041ZM74.0505 210.196C74.5612 210.049 74.9974 210.083 75.3592 210.296C75.7188 210.502 75.961 210.823 76.0857 211.258C76.2083 211.687 76.1715 212.083 75.9754 212.448C75.7771 212.806 75.4225 213.057 74.9118 213.204C74.4236 213.343 73.997 213.315 73.632 213.119C73.2671 212.923 73.0222 212.607 72.8975 212.171C72.7727 211.736 72.8084 211.335 73.0046 210.97C73.1986 210.598 73.5472 210.34 74.0505 210.196ZM79.2217 214.505C80.421 213.698 80.7615 212.333 80.2431 210.409L79.5721 208.066C79.0752 206.331 79.4178 204.945 80.5998 203.907C79.0479 203.653 78.0203 202.647 77.5171 200.89L76.8493 198.557C76.2708 196.651 75.2593 195.673 73.8149 195.623L73.904 193.891C75.3806 193.883 76.5768 194.215 77.4926 194.887C78.4062 195.552 79.062 196.579 79.4599 197.968L80.1051 200.222C80.589 201.911 81.5595 202.548 83.0165 202.131L83.5908 204.136C82.1337 204.553 81.6471 205.607 82.131 207.297L82.7665 209.516C83.1687 210.92 83.1544 212.148 82.7236 213.197C82.3025 214.253 81.4671 215.166 80.2174 215.939L79.2217 214.505Z" fill="black"/>
<defs>
<filter id="filter0_d" x="192.428" y="69.3345" width="133.636" height="127.135" filterUnits="userSpaceOnUse" color-interpolation-filters="sRGB">
<feFlood flood-opacity="0" result="BackgroundImageFix"/>
<feColorMatrix in="SourceAlpha" type="matrix" values="0 0 0 0 0 0 0 0 0 0 0 0 0 0 0 0 0 0 127 0"/>
<feOffset dy="4"/>
<feGaussianBlur stdDeviation="2"/>
<feColorMatrix type="matrix" values="0 0 0 0 0 0 0 0 0 0 0 0 0 0 0 0 0 0 0.25 0"/>
<feBlend mode="normal" in2="BackgroundImageFix" result="effect1_dropShadow"/>
<feBlend mode="normal" in="SourceGraphic" in2="effect1_dropShadow" result="shape"/>
</filter>
<filter id="filter1_d" x="68" y="70.0369" width="188.39" height="185.73" filterUnits="userSpaceOnUse" color-interpolation-filters="sRGB">
<feFlood flood-opacity="0" result="BackgroundImageFix"/>
<feColorMatrix in="SourceAlpha" type="matrix" values="0 0 0 0 0 0 0 0 0 0 0 0 0 0 0 0 0 0 127 0"/>
<feOffset dy="4"/>
<feGaussianBlur stdDeviation="2"/>
<feColorMatrix type="matrix" values="0 0 0 0 0 0 0 0 0 0 0 0 0 0 0 0 0 0 0.25 0"/>
<feBlend mode="normal" in2="BackgroundImageFix" result="effect1_dropShadow"/>
<feBlend mode="normal" in="SourceGraphic" in2="effect1_dropShadow" result="shape"/>
</filter>
<filter id="filter2_d" x="151.709" y="150.141" width="171.994" height="165.329" filterUnits="userSpaceOnUse" color-interpolation-filters="sRGB">
<feFlood flood-opacity="0" result="BackgroundImageFix"/>
<feColorMatrix in="SourceAlpha" type="matrix" values="0 0 0 0 0 0 0 0 0 0 0 0 0 0 0 0 0 0 127 0"/>
<feOffset dy="4"/>
<feGaussianBlur stdDeviation="2"/>
<feColorMatrix type="matrix" values="0 0 0 0 0 0 0 0 0 0 0 0 0 0 0 0 0 0 0.25 0"/>
<feBlend mode="normal" in2="BackgroundImageFix" result="effect1_dropShadow"/>
<feBlend mode="normal" in="SourceGraphic" in2="effect1_dropShadow" result="shape"/>
</filter>
<filter id="filter3_d" x="248.483" y="0" width="28.1179" height="77.601" filterUnits="userSpaceOnUse" color-interpolation-filters="sRGB">
<feFlood flood-opacity="0" result="BackgroundImageFix"/>
<feColorMatrix in="SourceAlpha" type="matrix" values="0 0 0 0 0 0 0 0 0 0 0 0 0 0 0 0 0 0 127 0"/>
<feOffset dy="4"/>
<feGaussianBlur stdDeviation="2"/>
<feColorMatrix type="matrix" values="0 0 0 0 0 0 0 0 0 0 0 0 0 0 0 0 0 0 0.25 0"/>
<feBlend mode="normal" in2="BackgroundImageFix" result="effect1_dropShadow"/>
<feBlend mode="normal" in="SourceGraphic" in2="effect1_dropShadow" result="shape"/>
</filter>
<filter id="filter4_d" x="267.61" y="11.9542" width="45.6103" height="73.6307" filterUnits="userSpaceOnUse" color-interpolation-filters="sRGB">
<feFlood flood-opacity="0" result="BackgroundImageFix"/>
<feColorMatrix in="SourceAlpha" type="matrix" values="0 0 0 0 0 0 0 0 0 0 0 0 0 0 0 0 0 0 127 0"/>
<feOffset dy="4"/>
<feGaussianBlur stdDeviation="2"/>
<feColorMatrix type="matrix" values="0 0 0 0 0 0 0 0 0 0 0 0 0 0 0 0 0 0 0.25 0"/>
<feBlend mode="normal" in2="BackgroundImageFix" result="effect1_dropShadow"/>
<feBlend mode="normal" in="SourceGraphic" in2="effect1_dropShadow" result="shape"/>
</filter>
<filter id="filter5_d" x="281.72" y="34.3888" width="61.1186" height="63.8694" filterUnits="userSpaceOnUse" color-interpolation-filters="sRGB">
<feFlood flood-opacity="0" result="BackgroundImageFix"/>
<feColorMatrix in="SourceAlpha" type="matrix" values="0 0 0 0 0 0 0 0 0 0 0 0 0 0 0 0 0 0 127 0"/>
<feOffset dy="4"/>
<feGaussianBlur stdDeviation="2"/>
<feColorMatrix type="matrix" values="0 0 0 0 0 0 0 0 0 0 0 0 0 0 0 0 0 0 0.25 0"/>
<feBlend mode="normal" in2="BackgroundImageFix" result="effect1_dropShadow"/>
<feBlend mode="normal" in="SourceGraphic" in2="effect1_dropShadow" result="shape"/>
</filter>
<filter id="filter6_d" x="299.778" y="59.3179" width="69.8508" height="53.1723" filterUnits="userSpaceOnUse" color-interpolation-filters="sRGB">
<feFlood flood-opacity="0" result="BackgroundImageFix"/>
<feColorMatrix in="SourceAlpha" type="matrix" values="0 0 0 0 0 0 0 0 0 0 0 0 0 0 0 0 0 0 127 0"/>
<feOffset dy="4"/>
<feGaussianBlur stdDeviation="2"/>
<feColorMatrix type="matrix" values="0 0 0 0 0 0 0 0 0 0 0 0 0 0 0 0 0 0 0.25 0"/>
<feBlend mode="normal" in2="BackgroundImageFix" result="effect1_dropShadow"/>
<feBlend mode="normal" in="SourceGraphic" in2="effect1_dropShadow" result="shape"/>
</filter>
<filter id="filter7_d" x="311.84" y="92.0475" width="74.3457" height="43.7352" filterUnits="userSpaceOnUse" color-interpolation-filters="sRGB">
<feFlood flood-opacity="0" result="BackgroundImageFix"/>
<feColorMatrix in="SourceAlpha" type="matrix" values="0 0 0 0 0 0 0 0 0 0 0 0 0 0 0 0 0 0 127 0"/>
<feOffset dy="4"/>
<feGaussianBlur stdDeviation="2"/>
<feColorMatrix type="matrix" values="0 0 0 0 0 0 0 0 0 0 0 0 0 0 0 0 0 0 0.25 0"/>
<feBlend mode="normal" in2="BackgroundImageFix" result="effect1_dropShadow"/>
<feBlend mode="normal" in="SourceGraphic" in2="effect1_dropShadow" result="shape"/>
</filter>
<filter id="filter8_d" x="320.208" y="124.324" width="77.1797" height="32.1339" filterUnits="userSpaceOnUse" color-interpolation-filters="sRGB">
<feFlood flood-opacity="0" result="BackgroundImageFix"/>
<feColorMatrix in="SourceAlpha" type="matrix" values="0 0 0 0 0 0 0 0 0 0 0 0 0 0 0 0 0 0 127 0"/>
<feOffset dy="4"/>
<feGaussianBlur stdDeviation="2"/>
<feColorMatrix type="matrix" values="0 0 0 0 0 0 0 0 0 0 0 0 0 0 0 0 0 0 0.25 0"/>
<feBlend mode="normal" in2="BackgroundImageFix" result="effect1_dropShadow"/>
<feBlend mode="normal" in="SourceGraphic" in2="effect1_dropShadow" result="shape"/>
</filter>
<filter id="filter9_d" x="187.516" y="288.097" width="54.1219" height="73.7479" filterUnits="userSpaceOnUse" color-interpolation-filters="sRGB">
<feFlood flood-opacity="0" result="BackgroundImageFix"/>
<feColorMatrix in="SourceAlpha" type="matrix" values="0 0 0 0 0 0 0 0 0 0 0 0 0 0 0 0 0 0 127 0"/>
<feOffset dy="4"/>
<feGaussianBlur stdDeviation="2"/>
<feColorMatrix type="matrix" values="0 0 0 0 0 0 0 0 0 0 0 0 0 0 0 0 0 0 0.25 0"/>
<feBlend mode="normal" in2="BackgroundImageFix" result="effect1_dropShadow"/>
<feBlend mode="normal" in="SourceGraphic" in2="effect1_dropShadow" result="shape"/>
</filter>
<filter id="filter10_d" x="247.719" y="273.811" width="67.0694" height="82.5309" filterUnits="userSpaceOnUse" color-interpolation-filters="sRGB">
<feFlood flood-opacity="0" result="BackgroundImageFix"/>
<feColorMatrix in="SourceAlpha" type="matrix" values="0 0 0 0 0 0 0 0 0 0 0 0 0 0 0 0 0 0 127 0"/>
<feOffset dy="4"/>
<feGaussianBlur stdDeviation="2"/>
<feColorMatrix type="matrix" values="0 0 0 0 0 0 0 0 0 0 0 0 0 0 0 0 0 0 0.25 0"/>
<feBlend mode="normal" in2="BackgroundImageFix" result="effect1_dropShadow"/>
<feBlend mode="normal" in="SourceGraphic" in2="effect1_dropShadow" result="shape"/>
</filter>
<filter id="filter11_d" x="293.106" y="233.998" width="83.3892" height="78.5911" filterUnits="userSpaceOnUse" color-interpolation-filters="sRGB">
<feFlood flood-opacity="0" result="BackgroundImageFix"/>
<feColorMatrix in="SourceAlpha" type="matrix" values="0 0 0 0 0 0 0 0 0 0 0 0 0 0 0 0 0 0 127 0"/>
<feOffset dy="4"/>
<feGaussianBlur stdDeviation="2"/>
<feColorMatrix type="matrix" values="0 0 0 0 0 0 0 0 0 0 0 0 0 0 0 0 0 0 0.25 0"/>
<feBlend mode="normal" in2="BackgroundImageFix" result="effect1_dropShadow"/>
<feBlend mode="normal" in="SourceGraphic" in2="effect1_dropShadow" result="shape"/>
</filter>
</defs>
</svg>
