<svg width="2764" height="472" viewBox="0 0 2764 472" fill="none" xmlns="http://www.w3.org/2000/svg">
<path d="M2764 472H0L76 300V400L140 300L168 400L212 160L256 268L308 140V336L336 248L368 360L440 248L488 360L512 248L576 400L632 300L680 360L748 208L772 300L868 0L972 248L1000 160L1028 228L1080 64L1156 380L1220 248L1276 336L1348 188L1400 300L1440 248L1472 300L1504 248L1544 300L1596 208L1652 336L1708 112L1776 380L1844 188L1908 336L1964 248L2024 336L2100 160L2168 300L2188 228L2228 300L2268 92L2336 440L2400 248L2456 336L2508 248L2552 300L2612 228L2672 380L2700 300L2764 472Z" fill="#273153"/>
</svg>
