<svg width="2764" height="576" viewBox="0 0 2764 576" fill="none" xmlns="http://www.w3.org/2000/svg">
<line x1="141.5" y1="501" x2="141.5" y2="397" stroke="#5C8094" stroke-width="7"/>
<path d="M141.5 388L154.923 414.25H128.077L141.5 388Z" fill="#5C8094"/>
<path d="M141 405L161.785 432.75H120.215L141 405Z" fill="#5C8094"/>
<path d="M141.5 415L170.512 456.25H112.488L141.5 415Z" fill="#5C8094"/>
<path d="M141 434L173.909 473L141 467L108.091 473L141 434Z" fill="#5C8094"/>
<line x1="182.769" y1="487.378" x2="182.769" y2="388.552" stroke="#5C8094" stroke-width="7"/>
<path d="M183.5 380L194.118 404.944H172.881L183.5 380Z" fill="#5C8094"/>
<path d="M183.104 396.154L199.546 422.524H166.663L183.104 396.154Z" fill="#5C8094"/>
<path d="M183.5 405.657L206.45 444.854H160.55L183.5 405.657Z" fill="#5C8094"/>
<path d="M183.104 423.711L209.137 460.771L183.104 455.07L157.072 460.771L183.104 423.711Z" fill="#5C8094"/>
<line x1="445.59" y1="453.378" x2="445.59" y2="310.375" stroke="#5C8094" stroke-width="9"/>
<path d="M444.5 298L465.937 334.094H423.062L444.5 298Z" fill="#5C8094"/>
<path d="M443.701 321.375L476.895 359.532H410.508L443.701 321.375Z" fill="#5C8094"/>
<path d="M444.5 335.126L490.832 391.846H398.168L444.5 335.126Z" fill="#5C8094"/>
<path d="M443.701 361.251L496.258 414.878L443.701 406.627L391.145 414.878L443.701 361.251Z" fill="#5C8094"/>
<line x1="505.09" y1="432.378" x2="505.09" y2="289.375" stroke="#5C8094" stroke-width="8"/>
<path d="M503.5 277L524.937 313.094H482.062L503.5 277Z" fill="#5C8094"/>
<path d="M502.701 300.375L535.895 338.532H469.508L502.701 300.375Z" fill="#5C8094"/>
<path d="M503.5 314.126L549.832 370.846H457.168L503.5 314.126Z" fill="#5C8094"/>
<path d="M502.701 340.251L555.257 393.878L502.701 385.627L450.145 393.878L502.701 340.251Z" fill="#5C8094"/>
<line x1="2580.09" y1="200.378" x2="2580.09" y2="57.3751" stroke="#5C8094" stroke-width="10"/>
<path d="M2579.5 45L2600.94 81.0945H2558.06L2579.5 45Z" fill="#5C8094"/>
<path d="M2578.7 68.3755L2611.89 106.532H2545.51L2578.7 68.3755Z" fill="#5C8094"/>
<path d="M2579.5 82.1257L2625.83 138.846H2533.17L2579.5 82.1257Z" fill="#5C8094"/>
<path d="M2578.7 108.251L2631.26 161.878L2578.7 153.627L2526.15 161.878L2578.7 108.251Z" fill="#5C8094"/>
<line x1="2521.09" y1="204.378" x2="2521.09" y2="61.3751" stroke="#5C8094" stroke-width="10"/>
<path d="M2520.5 49L2541.94 85.0945H2499.06L2520.5 49Z" fill="#5C8094"/>
<path d="M2519.7 72.3755L2552.89 110.532H2486.51L2519.7 72.3755Z" fill="#5C8094"/>
<path d="M2520.5 86.1257L2566.83 142.846H2474.17L2520.5 86.1257Z" fill="#5C8094"/>
<path d="M2519.7 112.251L2572.26 165.878L2519.7 157.627L2467.15 165.878L2519.7 112.251Z" fill="#5C8094"/>
<line x1="2459.79" y1="191.378" x2="2459.79" y2="15.2424" stroke="#5C8094" stroke-width="10"/>
<path d="M2458 0L2484.04 44.4573H2431.95L2458 0Z" fill="#5C8094"/>
<path d="M2457.03 28.7915L2497.36 75.7892H2416.7L2457.03 28.7915Z" fill="#5C8094"/>
<path d="M2458 45.7275L2514.29 115.589H2401.71L2458 45.7275Z" fill="#5C8094"/>
<path d="M2457.03 77.9065L2520.88 143.957L2457.03 133.796L2393.18 143.957L2457.03 77.9065Z" fill="#5C8094"/>
<path d="M2764 575.841H0C256 371.041 626.667 413.174 780 459.841C978.4 523.841 1244 433.174 1352 379.841C1960 72.6408 2546.67 153.174 2764 231.841V575.841Z" fill="#161E39"/>
</svg>
