<svg width="2764" height="561" viewBox="0 0 2764 561" fill="none" xmlns="http://www.w3.org/2000/svg">
<line x1="181.27" y1="475.509" x2="179.002" y2="389.131" stroke="#5C8094" stroke-width="10"/>
<path d="M183.5 368L194.119 392.944H172.882L183.5 368Z" fill="#5C8094"/>
<path d="M183.104 384.154L199.546 410.524H166.663L183.104 384.154Z" fill="#5C8094"/>
<path d="M183.5 393.657L206.45 432.854H160.55L183.5 393.657Z" fill="#5C8094"/>
<path d="M183.105 411.711L209.137 448.771L183.105 443.07L157.072 448.771L183.105 411.711Z" fill="#5C8094"/>
<line x1="2523.59" y1="189.379" x2="2523.59" y2="46.3761" stroke="#5C8094" stroke-width="17"/>
<path d="M2520.5 71.126L2566.83 127.846H2474.17L2520.5 71.126Z" fill="#5C8094"/>
<line x1="2456.79" y1="176.304" x2="2459" y2="25.9266" stroke="#5C8094" stroke-width="10"/>
<path d="M2400 126C2424.8 121.2 2446 75.6667 2456 66L2504 132C2482.4 131.2 2466.33 119 2461 113C2453.8 130.6 2417.33 129 2400 126Z" fill="#5C8094"/>
<path d="M2470 144.455C2490.98 140.818 2508.92 106.323 2517.38 99L2558 149C2539.72 148.394 2526.13 139.152 2521.62 134.606C2515.52 147.939 2484.67 146.727 2470 144.455Z" fill="#5C8094"/>
<path d="M2400 98C2424.8 93.2 2446 47.6667 2456 38L2504 104C2482.4 103.2 2466.33 91 2461 85C2453.8 102.6 2417.33 101 2400 98Z" fill="#5C8094"/>
<path d="M2408 72.8182C2428.98 68.6727 2446.92 29.3485 2455.38 21L2496 78C2477.72 77.3091 2464.13 66.7727 2459.62 61.5909C2453.52 76.7909 2422.67 75.4091 2408 72.8182Z" fill="#5C8094"/>
<path d="M2486 91.0909C2502.45 87.1636 2516.52 49.9091 2523.15 42L2555 96C2540.67 95.3455 2530.01 85.3636 2526.47 80.4545C2521.69 94.8545 2497.5 93.5455 2486 91.0909Z" fill="#5C8094"/>
<path d="M2496 66.1818C2508.88 63.1273 2519.88 34.1515 2525.08 28L2550 70C2538.78 69.4909 2530.44 61.7273 2527.67 57.9091C2523.93 69.1091 2505 68.0909 2496 66.1818Z" fill="#5C8094"/>
<path d="M2423 48.1818C2438.02 44.3273 2450.87 7.76263 2456.92 0L2486 53C2472.92 52.3576 2463.18 42.5606 2459.95 37.7424C2455.59 51.8758 2433.5 50.5909 2423 48.1818Z" fill="#5C8094"/>
<line x1="2606.59" y1="189.378" x2="2606.59" y2="46.3751" stroke="#5C8094" stroke-width="13"/>
<path d="M2558 113.455C2578.98 109.818 2596.92 75.3232 2605.38 68L2646 118C2627.72 117.394 2614.13 108.152 2609.62 103.606C2603.52 116.939 2572.67 115.727 2558 113.455Z" fill="#5C8094"/>
<path d="M2543 145.545C2568.75 140.382 2590.77 91.399 2601.15 81L2651 152C2628.57 151.139 2611.88 138.015 2606.35 131.561C2598.87 150.494 2561 148.773 2543 145.545Z" fill="#5C8094"/>
<path d="M2569 91.0909C2585.45 87.1636 2599.52 49.9091 2606.15 42L2638 96C2623.67 95.3455 2613.01 85.3636 2609.47 80.4545C2604.69 94.8545 2580.5 93.5455 2569 91.0909Z" fill="#5C8094"/>
<path d="M2579 66.1818C2591.88 63.1273 2602.88 34.1515 2608.08 28L2633 70C2621.78 69.4909 2613.44 61.7273 2610.67 57.9091C2606.93 69.1091 2588 68.0909 2579 66.1818Z" fill="#5C8094"/>
<line x1="412.09" y1="446.378" x2="412.09" y2="303.375" stroke="#5C8094" stroke-width="10"/>
<path d="M366 370.455C386.985 366.818 404.923 332.323 413.385 325L454 375C435.723 374.394 422.128 365.152 417.615 360.606C411.523 373.939 380.667 372.727 366 370.455Z" fill="#5C8094"/>
<path d="M351 402.545C376.754 397.382 398.769 348.399 409.154 338L459 409C436.569 408.139 419.885 395.015 414.346 388.561C406.869 407.494 369 405.773 351 402.545Z" fill="#5C8094"/>
<path d="M377 348.091C393.454 344.164 407.519 306.909 414.154 299L446 353C431.669 352.345 421.01 342.364 417.471 337.455C412.694 351.855 388.5 350.545 377 348.091Z" fill="#5C8094"/>
<path d="M387 323.182C399.877 320.127 410.885 291.152 416.077 285L441 327C429.785 326.491 421.442 318.727 418.673 314.909C414.935 326.109 396 325.091 387 323.182Z" fill="#5C8094"/>
<line x1="489.553" y1="434.251" x2="489.553" y2="262.118" stroke="#5C8094" stroke-width="14"/>
<path d="M435.056 342.862C460.315 338.485 481.908 296.963 492.093 288.148L540.982 348.333C518.982 347.604 502.617 336.478 497.185 331.007C489.852 347.056 452.71 345.597 435.056 342.862Z" fill="#5C8094"/>
<path d="M417 381.49C448 375.274 474.5 316.314 487 303.796L547 389.259C520 388.223 499.917 372.426 493.25 364.656C484.25 387.446 438.667 385.375 417 381.49Z" fill="#5C8094"/>
<path d="M448.296 315.943C468.101 311.216 485.032 266.372 493.018 256.852L531.351 321.852C514.101 321.064 501.27 309.049 497.011 303.14C491.261 320.473 462.138 318.898 448.296 315.943Z" fill="#5C8094"/>
<path d="M460.333 285.96C475.833 282.283 489.083 247.405 495.333 240L525.333 290.556C511.833 289.943 501.791 280.598 498.458 276.002C493.958 289.483 471.166 288.258 460.333 285.96Z" fill="#5C8094"/>
<line x1="141.851" y1="497.461" x2="139.003" y2="402.209" stroke="#5C8094" stroke-width="14"/>
<path d="M101.129 430.797C119.496 427.614 135.198 397.421 142.604 391.011L178.154 434.775C162.156 434.245 150.257 426.155 146.307 422.177C140.974 433.847 113.966 432.786 101.129 430.797Z" fill="#5C8094"/>
<path d="M88 458.886C110.542 454.366 129.812 411.492 138.901 402.39L182.531 464.535C162.897 463.782 148.294 452.295 143.446 446.645C136.901 463.217 103.755 461.71 88 458.886Z" fill="#5C8094"/>
<path d="M110.757 411.222C125.159 407.785 137.47 375.177 143.277 368.254L171.151 415.519C158.608 414.946 149.278 406.209 146.181 401.913C141.999 414.517 120.823 413.371 110.757 411.222Z" fill="#5C8094"/>
<path d="M119.51 389.42C130.781 386.746 140.416 361.384 144.96 356L166.775 392.762C156.958 392.316 149.657 385.521 147.233 382.179C143.96 391.982 127.387 391.091 119.51 389.42Z" fill="#5C8094"/>
<line x1="2454.29" y1="176.268" x2="2456.5" y2="25.8898" stroke="#5C8094" stroke-width="15"/>
<path d="M2400 126C2424.8 121.2 2446 75.6667 2456 66L2504 132C2482.4 131.2 2466.33 119 2461 113C2453.8 130.6 2417.33 129 2400 126Z" fill="#5C8094"/>
<path d="M2470 144.455C2490.98 140.818 2508.92 106.323 2517.38 99L2558 149C2539.72 148.394 2526.13 139.152 2521.62 134.606C2515.52 147.939 2484.67 146.727 2470 144.455Z" fill="#5C8094"/>
<path d="M2400 98C2424.8 93.2 2446 47.6667 2456 38L2504 104C2482.4 103.2 2466.33 91 2461 85C2453.8 102.6 2417.33 101 2400 98Z" fill="#5C8094"/>
<path d="M2408 72.8182C2428.98 68.6727 2446.92 29.3485 2455.38 21L2496 78C2477.72 77.3091 2464.13 66.7727 2459.62 61.5909C2453.52 76.7909 2422.67 75.4091 2408 72.8182Z" fill="#5C8094"/>
<path d="M2486 91.0909C2502.45 87.1636 2516.52 49.9091 2523.15 42L2555 96C2540.67 95.3455 2530.01 85.3636 2526.47 80.4545C2521.69 94.8545 2497.5 93.5455 2486 91.0909Z" fill="#5C8094"/>
<path d="M2496 66.1818C2508.88 63.1273 2519.88 34.1515 2525.08 28L2550 70C2538.78 69.4909 2530.44 61.7273 2527.67 57.9091C2523.93 69.1091 2505 68.0909 2496 66.1818Z" fill="#5C8094"/>
<path d="M2423 48.1818C2438.02 44.3273 2450.87 7.76263 2456.92 0L2486 53C2472.92 52.3576 2463.18 42.5606 2459.95 37.7424C2455.59 51.8758 2433.5 50.5909 2423 48.1818Z" fill="#5C8094"/>
<path d="M2764 560.841H0C256 356.041 626.667 398.174 780 444.841C978.4 508.841 1244 418.174 1352 364.841C1960 57.6408 2546.67 138.174 2764 216.841V560.841Z" fill="#161E39"/>
</svg>
