<svg width="478" height="73" viewBox="0 0 478 73" fill="none" xmlns="http://www.w3.org/2000/svg">
<g clip-path="url(#clip0)">
<mask id="mask0" mask-type="alpha" maskUnits="userSpaceOnUse" x="2" y="16" width="476" height="55">
<path d="M45.936 62.08V70H2.952V63.736L32.616 27.52H3.456V19.6H45V25.864L15.336 62.08H45.936ZM90.5186 31.552V70H81.9506V65.104C80.5106 66.832 78.7106 68.176 76.5506 69.136C74.3906 70.048 72.0626 70.504 69.5666 70.504C64.4306 70.504 60.3746 69.088 57.3986 66.256C54.4706 63.376 53.0066 59.128 53.0066 53.512V31.552H62.0066V52.288C62.0066 55.744 62.7746 58.336 64.3106 60.064C65.8946 61.744 68.1266 62.584 71.0066 62.584C74.2226 62.584 76.7666 61.6 78.6386 59.632C80.5586 57.616 81.5186 54.736 81.5186 50.992V31.552H90.5186ZM110.87 37.168C113.462 33.136 118.022 31.12 124.55 31.12V39.688C123.782 39.544 123.086 39.472 122.462 39.472C118.958 39.472 116.222 40.504 114.254 42.568C112.286 44.584 111.302 47.512 111.302 51.352V70H102.302V31.552H110.87V37.168ZM149.114 70.504C145.226 70.504 141.722 69.664 138.602 67.984C135.482 66.304 133.034 63.976 131.258 61C129.53 57.976 128.666 54.568 128.666 50.776C128.666 46.984 129.53 43.6 131.258 40.624C133.034 37.648 135.482 35.32 138.602 33.64C141.722 31.96 145.226 31.12 149.114 31.12C153.05 31.12 156.578 31.96 159.698 33.64C162.818 35.32 165.242 37.648 166.97 40.624C168.746 43.6 169.634 46.984 169.634 50.776C169.634 54.568 168.746 57.976 166.97 61C165.242 63.976 162.818 66.304 159.698 67.984C156.578 69.664 153.05 70.504 149.114 70.504ZM149.114 62.8C152.426 62.8 155.162 61.696 157.322 59.488C159.482 57.28 160.562 54.376 160.562 50.776C160.562 47.176 159.482 44.272 157.322 42.064C155.162 39.856 152.426 38.752 149.114 38.752C145.802 38.752 143.066 39.856 140.906 42.064C138.794 44.272 137.738 47.176 137.738 50.776C137.738 54.376 138.794 57.28 140.906 59.488C143.066 61.696 145.802 62.8 149.114 62.8ZM200.056 31.12C204.904 31.12 208.792 32.536 211.72 35.368C214.648 38.2 216.112 42.4 216.112 47.968V70H207.112V49.12C207.112 45.76 206.32 43.24 204.736 41.56C203.152 39.832 200.896 38.968 197.968 38.968C194.656 38.968 192.04 39.976 190.12 41.992C188.2 43.96 187.24 46.816 187.24 50.56V70H178.24V31.552H186.808V36.52C188.296 34.744 190.168 33.4 192.424 32.488C194.68 31.576 197.224 31.12 200.056 31.12ZM264.025 50.992C264.025 51.616 263.977 52.504 263.881 53.656H233.713C234.241 56.488 235.609 58.744 237.817 60.424C240.073 62.056 242.857 62.872 246.169 62.872C250.393 62.872 253.873 61.48 256.609 58.696L261.433 64.24C259.705 66.304 257.521 67.864 254.881 68.92C252.241 69.976 249.265 70.504 245.953 70.504C241.729 70.504 238.009 69.664 234.793 67.984C231.577 66.304 229.081 63.976 227.305 61C225.577 57.976 224.713 54.568 224.713 50.776C224.713 47.032 225.553 43.672 227.233 40.696C228.961 37.672 231.337 35.32 234.361 33.64C237.385 31.96 240.793 31.12 244.585 31.12C248.329 31.12 251.665 31.96 254.593 33.64C257.569 35.272 259.873 37.6 261.505 40.624C263.185 43.6 264.025 47.056 264.025 50.992ZM244.585 38.32C241.705 38.32 239.257 39.184 237.241 40.912C235.273 42.592 234.073 44.848 233.641 47.68H255.457C255.073 44.896 253.897 42.64 251.929 40.912C249.961 39.184 247.513 38.32 244.585 38.32ZM316.76 70.72C311.672 70.72 307.064 69.616 302.936 67.408C298.856 65.152 295.64 62.056 293.288 58.12C290.984 54.184 289.832 49.744 289.832 44.8C289.832 39.856 291.008 35.416 293.36 31.48C295.712 27.544 298.928 24.472 303.008 22.264C307.136 20.008 311.744 18.88 316.832 18.88C320.96 18.88 324.728 19.6 328.136 21.04C331.544 22.48 334.424 24.568 336.776 27.304L330.728 32.992C327.08 29.056 322.592 27.088 317.264 27.088C313.808 27.088 310.712 27.856 307.976 29.392C305.24 30.88 303.104 32.968 301.568 35.656C300.032 38.344 299.264 41.392 299.264 44.8C299.264 48.208 300.032 51.256 301.568 53.944C303.104 56.632 305.24 58.744 307.976 60.28C310.712 61.768 313.808 62.512 317.264 62.512C322.592 62.512 327.08 60.52 330.728 56.536L336.776 62.296C334.424 65.032 331.52 67.12 328.064 68.56C324.656 70 320.888 70.72 316.76 70.72ZM366.697 31.12C371.545 31.12 375.433 32.536 378.361 35.368C381.289 38.2 382.753 42.4 382.753 47.968V70H373.753V49.12C373.753 45.76 372.961 43.24 371.377 41.56C369.793 39.832 367.537 38.968 364.609 38.968C361.297 38.968 358.681 39.976 356.761 41.992C354.841 43.96 353.881 46.816 353.881 50.56V70H344.881V16.576H353.881V36.016C355.369 34.432 357.193 33.232 359.353 32.416C361.561 31.552 364.009 31.12 366.697 31.12ZM430.665 50.992C430.665 51.616 430.617 52.504 430.521 53.656H400.353C400.881 56.488 402.249 58.744 404.457 60.424C406.713 62.056 409.497 62.872 412.809 62.872C417.033 62.872 420.513 61.48 423.249 58.696L428.073 64.24C426.345 66.304 424.161 67.864 421.521 68.92C418.881 69.976 415.905 70.504 412.593 70.504C408.369 70.504 404.649 69.664 401.433 67.984C398.217 66.304 395.721 63.976 393.945 61C392.217 57.976 391.353 54.568 391.353 50.776C391.353 47.032 392.193 43.672 393.873 40.696C395.601 37.672 397.977 35.32 401.001 33.64C404.025 31.96 407.433 31.12 411.225 31.12C414.969 31.12 418.305 31.96 421.233 33.64C424.209 35.272 426.513 37.6 428.145 40.624C429.825 43.6 430.665 47.056 430.665 50.992ZM411.225 38.32C408.345 38.32 405.897 39.184 403.881 40.912C401.913 42.592 400.713 44.848 400.281 47.68H422.097C421.713 44.896 420.537 42.64 418.569 40.912C416.601 39.184 414.153 38.32 411.225 38.32ZM461.126 31.12C465.974 31.12 469.862 32.536 472.79 35.368C475.718 38.2 477.182 42.4 477.182 47.968V70H468.182V49.12C468.182 45.76 467.39 43.24 465.806 41.56C464.222 39.832 461.966 38.968 459.038 38.968C455.726 38.968 453.11 39.976 451.19 41.992C449.27 43.96 448.31 46.816 448.31 50.56V70H439.31V31.552H447.878V36.52C449.366 34.744 451.238 33.4 453.494 32.488C455.75 31.576 458.294 31.12 461.126 31.12Z" fill="#232323"/>
</mask>
<g mask="url(#mask0)">
<rect x="-5" y="11.723" width="499" height="56.6615" fill="#232323"/>
<path d="M-10.5356 77.5229C-10.1254 71.665 -25.3783 79.1645 -26.7859 71.8049L484.014 35.5L484.014 73.3689L-10.5356 77.5229Z" fill="#8BA9CC"/>
</g>
</g>
<defs>
<clipPath id="clip0">
<rect width="478" height="73" fill="white"/>
</clipPath>
</defs>
</svg>
